<svg viewBox="0 0 48 48" xmlns="http://www.w3.org/2000/svg">
  <circle cx="24" cy="24" r="23" stroke="#4A6945" stroke-width="1" fill="#FBF8F3"/>
  <path d="M 24 10 C 30 10, 34 16, 34 24 C 34 32, 30 38, 24 38 C 18 38, 14 32, 14 24 C 14 16, 18 10, 24 10 Z" fill="#7A9B76" opacity="0.12"/>
  <path d="M 24 11 L 24 37" stroke="#4A6945" stroke-width="1" stroke-linecap="round" opacity="0.35"/>
  <path d="M 16 32 L 16 18 C 16 17.5, 16.5 17, 17 17 C 17.5 17, 17.8 17.3, 18 17.8 L 23.5 28 L 29 17.8 C 29.2 17.3, 29.5 17, 30 17 C 30.5 17, 31 17.5, 31 18 L 31 32" stroke="#2C2A28" stroke-width="1.6" stroke-linecap="round" stroke-linejoin="round" fill="none"/>
  <circle cx="35" cy="13" r="1.2" fill="#C97B63"/>
</svg>
